<?xml version="1.0" encoding="UTF-8"?>
<svg width="22px" height="22px" viewBox="0 0 22 22" version="1.1" xmlns="http://www.w3.org/2000/svg" xmlns:xlink="http://www.w3.org/1999/xlink">
    <title>D0A71C1D-E2E9-43E2-AFB0-C50ECD9EE4D1</title>
    <g id="Screens" stroke="none" stroke-width="1" fill="none" fill-rule="evenodd">
        <g id="Homepage---Dark" transform="translate(-271.000000, -2406.000000)">
            <g id="tab_about" transform="translate(271.000000, 2406.000000)">
                <rect id="area" x="0" y="0" width="22" height="22"></rect>
                <path d="M20.6041215,1.40780911 C19.3872017,0.190889371 17.6691974,0 15.6290672,0 L6.335141,0 C4.3308026,0 2.61279826,0.190889371 1.39587852,1.40780911 C0.178958785,2.62472885 0,4.3308026 0,6.32321041 L0,15.5336226 C0,17.5737527 0.178958785,19.2678959 1.39587852,20.4848156 C2.61279826,21.7017354 4.3308026,21.8926247 6.35900217,21.8926247 L15.6290672,21.8926247 C17.6691974,21.8926247 19.3872017,21.7017354 20.6041215,20.4848156 C21.8210412,19.2678959 22,17.5737527 22,15.5336226 L22,6.35900217 C22,4.31887202 21.8210412,2.61279826 20.6041215,1.40780911 Z M20.0791757,6.02494577 L20.0791757,15.8557484 C20.0791757,17.0965293 19.9240781,18.3611714 19.1963124,19.0889371 C18.4804772,19.8047722 17.191974,19.9718004 15.9631236,19.9718004 L6.03687636,19.9718004 C4.80802603,19.9718004 3.51952278,19.8047722 2.79175705,19.0889371 C2.07592191,18.3611714 1.9208243,17.0965293 1.9208243,15.8557484 L1.9208243,6.06073753 C1.9208243,4.80802603 2.07592191,3.51952278 2.79175705,2.80368764 C3.51952278,2.07592191 4.81995662,1.9208243 6.07266811,1.9208243 L15.9631236,1.9208243 C17.191974,1.9208243 18.4804772,2.08785249 19.1963124,2.80368764 C19.9240781,3.53145336 20.0791757,4.79609544 20.0791757,6.02494577 Z M10.7733189,13.3980477 C11.3698482,13.3980477 11.7277657,13.016269 11.7277657,12.5509761 L11.7277657,12.4078091 C11.7277657,11.7396963 12.1214751,11.3101952 12.9446855,10.7613883 C14.1019523,9.9978308 14.9251627,9.30585683 14.9251627,7.87418655 C14.9251627,5.89370933 13.1713666,4.81995662 11.143167,4.81995662 C9.09110629,4.81995662 7.74295011,5.79826464 7.40889371,6.89587852 C7.34924078,7.0867679 7.31344902,7.27765727 7.31344902,7.48047722 C7.31344902,8.01735358 7.73101952,8.30368764 8.13665944,8.30368764 C8.54229935,8.30368764 8.79284165,8.11279826 9.00759219,7.82646421 L9.22234273,7.54013015 C9.63991323,6.84815618 10.2722343,6.44251627 11.0596529,6.44251627 C12.1453362,6.44251627 12.8611714,7.06290672 12.8611714,7.96963124 C12.8611714,8.78091106 12.3481562,9.17462039 11.3101952,9.90238612 C10.4511931,10.4989154 9.81887202,11.1312364 9.81887202,12.3004338 L9.81887202,12.4555315 C9.81887202,13.0759219 10.1529284,13.3980477 10.7733189,13.3980477 Z M10.7375271,16.9533623 C11.4295011,16.9533623 12.0260304,16.4045553 12.0260304,15.7125813 C12.0260304,15.0206074 11.4414317,14.4718004 10.7375271,14.4718004 C10.0336226,14.4718004 9.44902386,15.032538 9.44902386,15.7125813 C9.44902386,16.3926247 10.0455531,16.9533623 10.7375271,16.9533623 Z" id="Shape" fill="#FFFFFF" fill-rule="nonzero"></path>
            </g>
        </g>
    </g>
</svg>