<?xml version="1.0" encoding="UTF-8"?>
<svg width="28px" height="28px" viewBox="0 0 28 28" version="1.1" xmlns="http://www.w3.org/2000/svg" xmlns:xlink="http://www.w3.org/1999/xlink">
    <title>AF410D84-C93A-4044-A05E-7C72DF67E177</title>
    <g id="Screens" stroke="none" stroke-width="1" fill="none" fill-rule="evenodd">
        <g id="Details---Light" transform="translate(-327.000000, -20.000000)" fill="#4A4A4A">
            <path d="M341,20 C348.731986,20 355,26.2680135 355,34 C355,41.7319865 348.731986,48 341,48 C333.268014,48 327,41.7319865 327,34 C327,26.2680135 333.268014,20 341,20 Z M337.034301,28.3850755 C336.643777,27.9945512 336.010612,27.9945512 335.620087,28.3850755 L335.385075,28.6200875 C334.994551,29.0106118 334.994551,29.6437767 335.385075,30.034301 L339.350182,33.9991822 L335.385075,37.965699 C334.994551,38.3562233 334.994551,38.9893882 335.385075,39.3799125 L335.620087,39.6149245 C336.010612,40.0054488 336.643777,40.0054488 337.034301,39.6149245 L340.999182,35.6491822 L344.965699,39.6149245 C345.356223,40.0054488 345.989388,40.0054488 346.379913,39.6149245 L346.614925,39.3799125 C347.005449,38.9893882 347.005449,38.3562233 346.614925,37.965699 L342.649182,33.9991822 L346.614925,30.034301 C347.005449,29.6437767 347.005449,29.0106118 346.614925,28.6200875 L346.379913,28.3850755 C345.989388,27.9945512 345.356223,27.9945512 344.965699,28.3850755 L340.999182,32.3501822 Z" id="Combined-Shape" style="mix-blend-mode: difference;"></path>
        </g>
    </g>
</svg>