<?xml version="1.0" encoding="UTF-8"?>
<svg width="31px" height="31px" viewBox="0 0 31 31" version="1.1" xmlns="http://www.w3.org/2000/svg" xmlns:xlink="http://www.w3.org/1999/xlink">
    <title>8A29D928-AD36-4EF4-9CFB-8D3EB47DAC63</title>
    <g id="Splash" stroke="none" stroke-width="1" fill="none" fill-rule="evenodd">
        <g id="Splash_Dark" transform="translate(-172.000000, -687.000000)">
            <g id="m_dark" transform="translate(172.000000, 687.000000)">
                <rect id="Rectangle" fill="#FFFFFF" x="0" y="0" width="31" height="31"></rect>
                <path d="M0,15.5 L0,0 L15.5,0 L31,0 L31,15.5 L31,31 L15.5,31 L0,31 L0,15.5 Z M13.6280769,27.9953846 C13.6638462,27.8403846 14.105,24.9669231 14.6176923,21.6046154 C15.1423077,18.2065385 15.5953846,15.5834615 15.6311538,15.7026923 C15.6788462,15.8219231 16.1319231,18.5761538 16.6326923,21.8192308 C17.1334615,25.0623077 17.5746154,27.8403846 17.6103846,27.9953846 L17.67,28.2576923 L20.5196154,28.2576923 L23.3692308,28.2576923 L23.3692308,15.6192308 L23.3692308,2.98076923 L21.1038462,2.98076923 L18.8384615,2.98076923 L18.8384615,8.90653846 C18.8384615,12.1615385 18.8146154,14.7965385 18.7907692,14.7726923 C18.755,14.7488462 18.3257692,12.2330769 17.8369231,9.18076923 C17.3361538,6.12846154 16.895,3.49346154 16.8592308,3.30269231 L16.7876923,2.98076923 L15.6073077,2.98076923 C14.9634615,2.98076923 14.4269231,2.99269231 14.415,3.01653846 C14.415,3.02846154 13.9619231,5.67538462 13.4134615,8.88269231 L12.4238462,14.725 L12.4119231,8.85884615 L12.4,2.98076923 L10.1346154,2.98076923 L7.86923077,2.98076923 L7.86923077,15.6192308 L7.86923077,28.2576923 L10.7188462,28.2576923 L13.5684615,28.2576923 L13.6280769,27.9953846 Z" id="Shape" fill="#F0151E" fill-rule="nonzero" transform="translate(15.500000, 15.500000) rotate(-180.000000) translate(-15.500000, -15.500000) "></path>
            </g>
        </g>
    </g>
</svg>