<?xml version="1.0" encoding="UTF-8"?>
<svg width="20px" height="20px" viewBox="0 0 20 20" version="1.1" xmlns="http://www.w3.org/2000/svg" xmlns:xlink="http://www.w3.org/1999/xlink">
    <title>869A8494-65CA-4542-B953-33C4DD0C4FB2</title>
    <g id="Screens" stroke="none" stroke-width="1" fill="none" fill-rule="evenodd">
        <g id="Details---Dark" transform="translate(-337.000000, -314.000000)">
            <g id="share" transform="translate(337.000000, 314.000000)">
                <rect id="area" x="0" y="0" width="20" height="20"></rect>
                <path d="M9.99549296,13.0615862 C10.3830986,13.0615862 10.7166197,12.7425786 10.7166197,12.3704032 L10.7166197,3.2698272 L10.6625352,1.94062915 L11.2664789,2.5697829 L12.6366197,4.00531679 C12.7628169,4.14709792 12.9430986,4.21798848 13.1233803,4.21798848 C13.4929577,4.21798848 13.7814085,3.95214887 13.7814085,3.58883474 C13.7814085,3.40274701 13.7002817,3.26096588 13.5650704,3.12804608 L10.5183099,0.239255649 C10.3380282,0.0620292424 10.1847887,0 9.99549296,0 C9.81521127,0 9.66197183,0.0620292424 9.47267606,0.239255649 L6.42591549,3.12804608 C6.29070423,3.26096588 6.21859155,3.40274701 6.21859155,3.58883474 C6.21859155,3.95214887 6.48901408,4.21798848 6.86760563,4.21798848 C7.03887324,4.21798848 7.2371831,4.14709792 7.36338028,4.00531679 L8.72450704,2.5697829 L9.33746479,1.94062915 L9.28338028,3.2698272 L9.28338028,12.3704032 C9.28338028,12.7425786 9.60788732,13.0615862 9.99549296,13.0615862 Z M4.83042254,20 L15.1695775,20 C17.0535211,20 18,19.0784227 18,17.2529907 L18,8.409393 C18,6.58396101 17.0535211,5.6623837 15.1695775,5.6623837 L12.6546479,5.6623837 L12.6546479,7.08905627 L15.1425352,7.08905627 C16.0349296,7.08905627 16.5487324,7.56756757 16.5487324,8.48914488 L16.5487324,17.1732388 C16.5487324,18.0948161 16.0349296,18.5733274 15.1425352,18.5733274 L4.8484507,18.5733274 C3.94704225,18.5733274 3.45126761,18.0948161 3.45126761,17.1732388 L3.45126761,8.48914488 C3.45126761,7.56756757 3.94704225,7.08905627 4.8484507,7.08905627 L7.34535211,7.08905627 L7.34535211,5.6623837 L4.83042254,5.6623837 C2.94647887,5.6623837 2,6.58396101 2,8.409393 L2,17.2529907 C2,19.0784227 2.94647887,20 4.83042254,20 Z" id="Shape" fill="#FFFFFF" fill-rule="nonzero"></path>
            </g>
        </g>
    </g>
</svg>