<?xml version="1.0" encoding="UTF-8"?>
<svg width="69px" height="70px" viewBox="0 0 69 70" version="1.1" xmlns="http://www.w3.org/2000/svg" xmlns:xlink="http://www.w3.org/1999/xlink">
    <title>D975D097-9D4B-4B36-869F-57A95DDE820D</title>
    <defs>
        <filter x="-115.3%" y="-109.1%" width="330.6%" height="318.2%" filterUnits="objectBoundingBox" id="filter-1">
            <feGaussianBlur stdDeviation="8" in="SourceGraphic"></feGaussianBlur>
        </filter>
    </defs>
    <g id="Screens" stroke="none" stroke-width="1" fill="none" fill-rule="evenodd">
        <g id="Homepage---Dark" transform="translate(-60.000000, -2382.000000)">
            <g id="tab_homepage" transform="translate(83.000000, 2406.000000)">
                <rect id="area" x="0" y="0" width="22" height="22"></rect>
                <path d="M5.14363144,1.28184282 L17.6838302,1.28184282 C17.6242096,0.437217706 17.1472448,0 16.2231256,0 L6.59439928,0 C5.6802168,0 5.20325203,0.437217706 5.14363144,1.28184282 Z M3.09665763,4.03432701 L19.730804,4.03432701 C19.5817525,3.1300813 19.1544715,2.633243 18.1607949,2.633243 L4.66666667,2.633243 C3.67299006,2.633243 3.24570912,3.1300813 3.09665763,4.03432701 Z M4.12014453,22 L18.6973803,22 C20.7642276,22 21.8175248,20.9665763 21.8175248,18.9196025 L21.8175248,8.71454381 C21.8175248,6.66757001 20.7642276,5.63414634 18.6973803,5.63414634 L4.12014453,5.63414634 C2.03342367,5.63414634 1,6.66757001 1,8.71454381 L1,18.9196025 C1,20.9665763 2.03342367,22 4.12014453,22 Z M4.14001807,20.4001807 C3.14634146,20.4001807 2.59981933,19.8635953 2.59981933,18.8301716 L2.59981933,8.80397471 C2.59981933,7.77055104 3.14634146,7.23396567 4.14001807,7.23396567 L18.66757,7.23396567 C19.6513098,7.23396567 20.2177055,7.77055104 20.2177055,8.80397471 L20.2177055,18.8301716 C20.2177055,19.8635953 19.6513098,20.4001807 18.66757,20.4001807 L4.14001807,20.4001807 Z" id="active_blur" fill="#FFFFFF" fill-rule="nonzero" filter="url(#filter-1)"></path>
                <path d="M5.14363144,1.28184282 L17.6838302,1.28184282 C17.6242096,0.437217706 17.1472448,0 16.2231256,0 L6.59439928,0 C5.6802168,0 5.20325203,0.437217706 5.14363144,1.28184282 Z M3.09665763,4.03432701 L19.730804,4.03432701 C19.5817525,3.1300813 19.1544715,2.633243 18.1607949,2.633243 L4.66666667,2.633243 C3.67299006,2.633243 3.24570912,3.1300813 3.09665763,4.03432701 Z M4.12014453,22 L18.6973803,22 C20.7642276,22 21.8175248,20.9665763 21.8175248,18.9196025 L21.8175248,8.71454381 C21.8175248,6.66757001 20.7642276,5.63414634 18.6973803,5.63414634 L4.12014453,5.63414634 C2.03342367,5.63414634 1,6.66757001 1,8.71454381 L1,18.9196025 C1,20.9665763 2.03342367,22 4.12014453,22 Z M4.14001807,20.4001807 C3.14634146,20.4001807 2.59981933,19.8635953 2.59981933,18.8301716 L2.59981933,8.80397471 C2.59981933,7.77055104 3.14634146,7.23396567 4.14001807,7.23396567 L18.66757,7.23396567 C19.6513098,7.23396567 20.2177055,7.77055104 20.2177055,8.80397471 L20.2177055,18.8301716 C20.2177055,19.8635953 19.6513098,20.4001807 18.66757,20.4001807 L4.14001807,20.4001807 Z" id="Shape" fill="#FFFFFF" fill-rule="nonzero"></path>
            </g>
        </g>
    </g>
</svg>